<?xml version="1.0" encoding="utf-8"?>
<!-- Generator: Adobe Illustrator 16.0.0, SVG Export Plug-In . SVG Version: 6.00 Build 0)  -->
<!DOCTYPE svg PUBLIC "-//W3C//DTD SVG 1.1//EN" "http://www.w3.org/Graphics/SVG/1.1/DTD/svg11.dtd">
<svg version="1.1" id="Layer_1" xmlns="http://www.w3.org/2000/svg" xmlns:xlink="http://www.w3.org/1999/xlink" x="0px" y="0px"
	 width="393.5px" height="393.5px" viewBox="118.5 118.5 393.5 393.5" enable-background="new 118.5 118.5 393.5 393.5"
	 xml:space="preserve">
<path id="star-2-circle-outline-icon" fill="#FFFFFF" d="M315.25,156.704c87.622,0,158.546,70.911,158.546,158.546
	c0,87.624-70.911,158.546-158.546,158.546c-87.622,0-158.546-70.911-158.546-158.546
	C156.704,227.626,227.615,156.704,315.25,156.704z M315.25,118.5c-108.662,0-196.75,88.088-196.75,196.75
	C118.5,423.913,206.588,512,315.25,512C423.913,512,512,423.913,512,315.25C512,206.588,423.913,118.5,315.25,118.5z
	 M282.602,271.505l-78.48,10.836l57.123,54.896l-13.946,77.989l69.862-37.363l69.862,37.363l-13.947-77.989l57.122-54.896
	l-78.48-10.836l-34.557-71.291L282.602,271.505z"/>
</svg>
