<?xml version="1.0" standalone="no"?> <!DOCTYPE svg PUBLIC "-//W3C//DTD SVG 1.0//EN" "http://www.w3.org/TR/2001/REC-SVG-20010904/DTD/svg10.dtd" > <svg xmlns="http://www.w3.org/2000/svg" width="100%" height="100%">
<defs >
<font id="amasismtstd-medium" horiz-adv-x="548" ><font-face
    font-family="Amasis MT Std Medium"
    units-per-em="1000"
    panose-1="2 4 6 2 5 3 4 2 2 3"
    ascent="710"
    descent="-209"
    alphabetic="0" />
<missing-glyph horiz-adv-x="500" d="M12 0V665H487V0H12ZM88 618L250 375L411 618H88ZM60 575V91Q60 90 140 212L221 333L60 575ZM440 575L278 333L440 90V575ZM411 48L250 290L88 48H411Z" />
<glyph unicode=" " glyph-name="space" horiz-adv-x="271" />
<glyph unicode="!" glyph-name="exclam" horiz-adv-x="281" d="M113 120T141 120T189 101T209 52Q209 24 189 5T141 -15Q112 -15 93 5T73 52Q73 80 93 100ZM83 695H199V654L187 190H95L83 654V695Z" />
<glyph unicode="&quot;" glyph-name="quotedbl" horiz-adv-x="396" d="M64 423L45 562Q40 592 40 610Q40 677 103 677Q138 677 152 658T166 615Q166 613 162 565L141 423H64ZM254 423L234 562Q230 594 230 610Q230 677 292 677Q327 677 341 658T356 615Q356 595
351 565L331 423H254Z" />
<glyph unicode="#" glyph-name="numbersign" horiz-adv-x="667" d="M40 489H193L235 680H315L274 489H459L499 680H580L539 489H627V408H524L491 248H627V168H475L434 -22H353L394 168H208L169 -22H88L127 168H40V248H144L178 408H40V489ZM443 408H258L225 249H410L443
408Z" />
<glyph unicode="$" glyph-name="dollar" horiz-adv-x="500" d="M223 698H291V654Q381 645 442 616V464H356V493Q356 537 344 553T291 581V373Q386 325 426 282T466 170Q466 120 447 83T398 27T338 -2T280 -14V-103H211V-17Q121 -12 43 21V191H132V157Q132 141
133 131T141 103T165 74T211 57V294Q179 311 159 324T110 361T68 417T53 486Q53 498 54 509T64 545T89 590T140 628T223 654V698ZM223 409V581Q206 575 195 570T172 546T159 501Q159 479 168 462T188 436T223 409ZM280 257V64Q353 79 353 154Q353 214 280 257Z"
/>
<glyph unicode="%" glyph-name="percent" horiz-adv-x="844" d="M104 525Q104 392 164 392Q198 392 211 427T224 532Q224 660 165 660Q145 660 132 649T114 616T106 574T104 525ZM24 525Q24 710 164 710Q236 710 270 667T304 533Q304 343 160 343Q24 343 24 525ZM592
710H677L251 -20H166L592 710ZM540 174Q540 193 541 208T549 254T570 305T611 342T679 359Q752 359 786 316T820 182Q820 -8 680 -8Q601 -8 571 41T540 174ZM620 174Q620 41 680 41Q713 41 726 76T740 181Q740 309 681 309Q661 309 648 298T630 265T622 223T620
174Z" />
<glyph unicode="&amp;" glyph-name="ampersand" horiz-adv-x="729" d="M476 382H686V318H660Q632 318 622 305T594 243Q570 174 542 130Q593 68 645 68Q660 68 686 75V0Q636 -20 605 -20Q533 -20 471 51Q393 -19 276 -19Q167 -19 108 41T49 183Q49 224 62 258T103
318T150 357T201 390Q138 471 138 544Q138 609 187 649T312 690Q401 690 442 648T483 549Q483 508 461 473T412 419T344 375L481 202Q511 256 511 294Q511 318 476 318V382ZM295 434Q316 447 327 454T356 477T380 510T388 552Q388 589 365 606T312 624Q276 624
257 603T237 554Q237 501 295 434ZM413 117L252 322Q161 260 161 193Q161 149 195 109T290 68Q353 68 413 117Z" />
<glyph unicode="&apos;" glyph-name="quotesingle" horiz-adv-x="208" d="M65 423L46 562Q41 592 41 610Q41 677 104 677Q139 677 153 658T167 615Q167 613 163 565L142 423H65Z" />
<glyph unicode="(" glyph-name="parenleft" horiz-adv-x="333" d="M205 710H302Q256 629 227 555T186 417T172 319T169 240Q169 -2 302 -227H205Q50 -7 50 238Q50 480 205 710Z" />
<glyph unicode=")" glyph-name="parenright" horiz-adv-x="333" d="M128 -227H31Q77 -146 106 -72T147 66T161 164T164 243Q164 485 31 710H128Q283 490 283 245Q283 3 128 -227Z" />
<glyph unicode="*" glyph-name="asterisk" horiz-adv-x="510" d="M61 599L91 590L216 543L209 676V710H300V676L293 543L418 590L450 599L478 514L446 504L317 470L398 366L418 338L345 286L325 312L255 424L179 312L159 286L87 338L107 366L192 470L61 504L32
514L61 599Z" />
<glyph unicode="+" glyph-name="plus" horiz-adv-x="667" d="M63 373H288V597H378V373H603V283H378V59H288V283H63V373Z" />
<glyph unicode="," glyph-name="comma" horiz-adv-x="281" d="M65 -161V-106Q100 -90 117 -69T139 -12Q116 -10 101 0T80 23T73 44T71 57Q71 87 91 106T139 125Q174 125 196 97T218 26Q218 15 217 5T208 -31T186 -78T140 -122T65 -161Z" />
<glyph unicode="-" glyph-name="hyphen" horiz-adv-x="344" d="M32 293H313V186H32V293Z" />
<glyph unicode="." glyph-name="period" horiz-adv-x="281" d="M141 122Q169 122 189 102T209 53T189 5T141 -15Q112 -15 92 5T72 53Q72 82 92 102T141 122Z" />
<glyph unicode="/" glyph-name="slash" horiz-adv-x="563" d="M411 690H508L151 -24H55L411 690Z" />
<glyph unicode="0" glyph-name="zero" horiz-adv-x="542" d="M48 327Q48 677 277 677Q332 677 372 656T435 603T472 525T490 436T494 342Q494 -15 264 -15Q206 -15 164 10T101 69T67 154T51 243T48 327ZM162 329Q162 270 166 227T182 146T215 88T270 68Q332 68
355 134T379 340Q379 372 378 395T374 451T364 506T345 550T316 583T272 594Q213 594 188 529T162 329Z" />
<glyph unicode="1" glyph-name="one" horiz-adv-x="542" d="M279 677H343V107Q343 82 350 73T388 64H431V0H142V64H194Q220 64 227 73T234 109V471Q234 500 227 509T188 515L129 509V572Q234 585 279 677Z" />
<glyph unicode="2" glyph-name="two" horiz-adv-x="542" d="M75 466V600Q165 677 271 677Q369 677 415 625T462 505Q462 397 370 285Q294 190 190 94H346Q381 94 389 102T397 136V173H483V0H56V87Q114 143 145 173T221 254T290 340T331 419T349 500T325 567T255
597Q162 597 162 501V466H75Z" />
<glyph unicode="3" glyph-name="three" horiz-adv-x="542" d="M83 482V619Q169 677 268 677Q364 677 411 628T459 510Q459 466 436 424T353 358V356Q398 343 426 312T462 253T470 192Q470 170 466 147T448 94T409 40T342 1T240 -15Q146 -15 65 34V183H154V142Q154
113 162 100Q185 66 242 66Q304 66 331 103T358 186Q358 218 347 241T321 276T283 295T245 304T208 307V393Q351 397 351 503Q351 543 328 572T258 601Q166 601 166 512V482H83Z" />
<glyph unicode="4" glyph-name="four" horiz-adv-x="542" d="M325 677H422V254H500V168H422V108Q422 94 423 88T428 76T442 67T469 64H494V0H232V64H276Q305 64 313 71T322 105V168H43V273L325 677ZM320 532L129 254H322V532H320Z" />
<glyph unicode="5" glyph-name="five" horiz-adv-x="542" d="M104 663H452V570H191L183 418Q226 447 285 447Q378 447 426 385T474 231Q474 211 472 189T456 128T421 59T354 8T246 -15Q148 -15 75 37V185H166V150Q166 132 167 122T175 95T198 71T241 63Q286 63
314 89T352 149T361 223Q361 292 332 329T255 367Q203 367 173 323H88L104 663Z" />
<glyph unicode="6" glyph-name="six" horiz-adv-x="542" d="M477 637V505H389V522Q389 539 388 548T380 572T358 594T315 601Q184 601 167 375Q186 392 197 401T242 423T311 437Q392 437 446 383T500 225Q500 182 489 143T454 66T383 7T274 -15Q214 -15 170 8T104
64T68 143T51 222T48 293Q48 468 117 572Q186 677 325 677Q407 677 477 637ZM391 216Q391 288 358 322T281 357Q235 357 201 321T167 211Q167 176 176 144T212 86T279 60Q312 60 335 75T369 115T386 164T391 216Z" />
<glyph unicode="7" glyph-name="seven" horiz-adv-x="542" d="M72 663H494V566Q484 556 437 476T354 312Q287 151 281 -8H177Q180 149 244 302T388 566H195Q172 566 165 560T158 529V479H72V663Z" />
<glyph unicode="8" glyph-name="eight" horiz-adv-x="542" d="M387 351Q493 302 493 189Q493 106 437 46T273 -15Q219 -15 177 -1T112 36T74 86T54 138T49 185Q49 303 155 351Q65 401 65 495Q65 566 117 621T274 677Q371 677 423 627T476 501Q476 401 387 351ZM273
600Q221 600 197 568T172 493Q172 442 199 414T272 386Q320 386 345 417T370 496Q370 539 345 569T273 600ZM160 186Q160 126 192 95T273 63Q327 63 354 99T382 189Q382 237 354 272T272 307Q219 307 190 272T160 186Z" />
<glyph unicode="9" glyph-name="nine" horiz-adv-x="542" d="M65 26V158H153V141Q153 122 154 112T162 88T184 68T227 61Q359 61 374 288Q312 226 231 226Q149 226 95 281T41 437Q41 478 51 517T86 593T157 654T268 677Q325 677 368 656T434 603T471 528T489 447T493
369Q493 192 425 89Q354 -15 219 -15Q135 -15 65 26ZM151 447Q151 372 184 339T261 306Q306 306 340 341T375 453Q375 514 347 558T262 602Q202 602 177 556T151 447Z" />
<glyph unicode=":" glyph-name="colon" horiz-adv-x="281" d="M141 122Q169 122 189 102T209 53T189 5T141 -15Q112 -15 92 5T72 53Q72 82 92 102T141 122ZM141 498Q169 498 189 478T209 429Q209 401 189 381T141 361Q112 361 92 381T72 430Q72 457 91 477T141 498Z" />
<glyph unicode=";" glyph-name="semicolon" horiz-adv-x="281" d="M65 -161V-106Q100 -90 117 -69T139 -12Q116 -10 101 0T80 23T73 44T71 57Q71 87 91 106T139 125Q174 125 196 97T218 26Q218 15 217 5T208 -31T186 -78T140 -122T65 -161ZM141 498Q169 498 189
478T209 429Q209 401 189 381T141 361Q112 361 92 381T72 430Q72 457 91 477T141 498Z" />
<glyph unicode="&lt;" glyph-name="less" horiz-adv-x="667" d="M602 62L64 287V369L602 594V497L187 328L602 160V62Z" />
<glyph unicode="=" glyph-name="equal" horiz-adv-x="667" d="M64 490H603V400H64V490ZM64 258H603V168H64V258Z" />
<glyph unicode="&gt;" glyph-name="greater" horiz-adv-x="667" d="M64 594L602 369V287L64 62V159L480 328L64 496V594Z" />
<glyph unicode="?" glyph-name="question" horiz-adv-x="458" d="M122 533V508H34V647Q119 710 228 710Q325 710 373 661T422 544Q422 510 409 478T381 426T336 373Q292 321 271 281T246 185H153Q155 294 219 375Q272 443 289 474T307 544Q307 581 282 607T215
633Q122 633 122 533ZM175 121T203 121T251 102T271 53Q271 25 251 5T203 -15T155 5T135 53Q135 82 155 101Z" />
<glyph unicode="@" glyph-name="at" horiz-adv-x="1000" d="M627 450L642 516H749L677 178Q676 176 674 164Q666 127 666 117Q666 104 674 97T692 89Q713 89 742 108T801 159T852 244T873 354Q873 479 780 564T531 649Q449 649 381 625T266 559T187 464T140 352T125
235Q125 156 148 93T211 -11T305 -79T417 -118T541 -130Q781 -130 882 9H978Q960 -27 931 -60T852 -130T722 -188T545 -210Q416 -210 317 -174T160 -75T74 65T45 234Q45 301 61 367T115 500T208 616T347 698T533 729Q636 729 718 697T850 610T927 490T953 352Q953
211 860 105T646 -1Q618 -1 599 5T572 24T560 46T554 68Q489 -1 410 -1Q330 -1 280 61T230 209Q230 331 307 430T487 529Q579 529 627 450ZM337 208Q337 154 363 117T435 80Q503 80 551 156T600 324Q600 371 576 410T498 450Q448 450 410 408T355 313T337 208Z"
/>
<glyph unicode="A" glyph-name="A" horiz-adv-x="698" d="M290 698H410L605 136Q620 91 632 81T669 70H687V0H430V70H458Q471 70 477 70T488 76T494 91Q494 103 484 130L457 210H218L189 127Q181 108 181 94Q181 70 221 70H246V0H11V70H26Q54 70 65 82T88 125L290
698ZM337 568L241 292H434L339 568H337Z" />
<glyph unicode="B" glyph-name="B" horiz-adv-x="646" d="M43 620V690H321Q559 690 559 518Q559 412 464 369V367Q479 364 492 360T527 344T564 314T590 267T602 197Q602 154 589 120T554 65T517 34T484 17Q439 0 361 0H43V70H66Q96 70 103 78T111 119V575Q111
593 110 600T98 614T66 620H43ZM230 606V399H308Q441 399 441 508Q441 606 318 606H230ZM230 316V83H343Q477 83 477 200Q477 233 465 256T437 291T395 308T356 315T321 316H230Z" />
<glyph unicode="C" glyph-name="C" horiz-adv-x="677" d="M626 654V475H525V493Q525 546 520 562Q512 597 472 612T393 628Q288 628 231 552T174 354Q174 281 194 226T249 141T320 96T397 81Q523 81 626 163V56Q525 -19 382 -19Q296 -19 230 13T125 98T68 212T49
338Q49 381 57 426T89 523T150 616T252 683T400 710Q524 710 626 654Z" />
<glyph unicode="D" glyph-name="D" horiz-adv-x="740" d="M43 690H349Q500 690 575 630Q693 537 693 350Q693 285 677 227T625 116T525 32T372 0H43V70H65Q96 70 103 79T110 120V572Q110 600 103 610T65 620H43V690ZM328 603H229V84H341Q452 84 508 153Q564 224
564 343Q564 423 544 477T486 558T411 593T328 603Z" />
<glyph unicode="E" glyph-name="E" horiz-adv-x="615" d="M44 690H562V522H472V564Q472 590 462 597T417 604H232V397H375Q397 397 403 403T410 430V457H492V249H410V282Q410 299 403 305T375 312H232V84H438Q469 84 476 93T484 130V172H573V0H44V70H69Q98 70
104 79T111 116V577Q111 602 104 611T69 620H44V690Z" />
<glyph unicode="F" glyph-name="F" horiz-adv-x="594" d="M45 690H567V522H480V557Q480 586 472 595T427 604H233V399H364Q387 399 392 405T398 433V458H480V250H398V280Q398 300 392 306T360 313H233V117Q233 88 240 79T281 70H310V0H45V70H65Q97 70 105 79T113
122V571Q113 602 105 611T65 620H45V690Z" />
<glyph unicode="G" glyph-name="G" horiz-adv-x="729" d="M517 100V219Q517 248 510 257T472 267H445V337H703V267H675Q648 267 642 257T635 215V44Q574 12 520 -3T392 -19Q309 -19 245 8T145 74T86 165T56 258T49 340Q49 392 60 442T99 542T165 628T266 687T404
710Q533 710 635 655V477H535V513Q535 555 524 575Q511 600 476 613T403 626Q291 626 234 546T176 348Q176 213 240 143T397 73Q463 73 517 100Z" />
<glyph unicode="H" glyph-name="H" horiz-adv-x="760" d="M42 690H298V620H276Q245 620 238 610T230 574V412H530V574Q530 588 529 594T524 608T509 617T482 620H462V690H718V620H696Q666 620 659 612T651 574V116Q651 89 658 80T696 70H718V0H462V70H482Q514
70 522 79T530 116V322H230V125Q230 90 237 80T276 70H298V0H42V70H67Q96 70 103 79T110 116V574Q110 601 103 610T64 620H42V690Z" />
<glyph unicode="I" glyph-name="I" horiz-adv-x="354" d="M49 690H305V620H285Q252 620 245 610T238 565V121Q238 88 245 79T285 70H305V0H49V70H70Q103 70 110 79T117 121V572Q117 601 110 610T70 620H49V690Z" />
<glyph unicode="J" glyph-name="J" horiz-adv-x="510" d="M36 165H120V144Q120 64 193 64Q225 64 245 75T274 108T285 151T288 204V575Q288 601 281 610T243 620H214V690H476V620H451Q423 620 416 611T408 572V212Q408 178 405 151T388 91T352 35T287 -3T188 -19Q106
-19 36 16V165Z" />
<glyph unicode="K" glyph-name="K" horiz-adv-x="677" d="M45 690H299V620H281Q247 620 240 611T232 572V373L416 568Q438 593 438 603Q438 620 399 620V690H650V620Q612 620 591 611T542 572L350 365L570 129Q596 101 618 88T652 72T684 70V0H395V70H416Q443
70 443 87Q443 95 428 115L419 124L232 330V121Q232 102 232 96T236 82T248 72T274 70H294V0H45V70H70Q97 70 105 78T113 112V572Q113 599 106 609T70 620H45V690Z" />
<glyph unicode="L" glyph-name="L" horiz-adv-x="583" d="M44 690H308V620H280Q246 620 239 611T232 570V84H424Q451 84 459 93T467 129V183H557V0H44V70H66Q88 70 98 75T109 89T111 117V575Q111 593 110 600T98 614T66 620H44V690Z" />
<glyph unicode="M" glyph-name="M" horiz-adv-x="927" d="M46 690H302Q307 675 342 564T412 344T462 181H464L628 690H881V620H862Q828 620 821 612T814 567V118Q814 87 821 79T862 70H881V0H632V70H651Q684 70 691 79T698 124V620H696L504 21H402L214 620H212V118Q212
88 220 79T260 70H278V0H46V70H67Q100 70 107 79T114 121V570Q114 602 107 611T67 620H46V690Z" />
<glyph unicode="N" glyph-name="N" horiz-adv-x="740" d="M46 690H272L540 183H542V571Q542 587 541 594T536 608T521 618T493 620H476V690H706V620H683Q652 620 646 611T639 571V-4H515L212 560H210V117Q210 88 217 79T257 70H277V0H46V70H68Q99 70 106 79T113
120V575Q113 601 106 610T68 620H46V690Z" />
<glyph unicode="O" glyph-name="O" horiz-adv-x="771" d="M48 338Q48 509 141 609T389 710Q500 710 577 660T689 530T723 352Q723 189 632 85T382 -19Q229 -19 139 79T48 338ZM176 342Q176 326 176 313T181 269T192 216T215 163T252 114T309 82T387 68Q444 68
485 92T550 158T583 249T594 355Q594 403 585 445T555 529T491 596T387 621Q286 621 231 549T176 342Z" />
<glyph unicode="P" glyph-name="P" horiz-adv-x="615" d="M47 620V690H335Q418 690 459 674Q494 660 518 637T553 585T567 537T571 496Q571 377 481 325Q433 298 343 298H234V111Q234 85 242 78T280 70H306V0H47V70H68Q99 70 107 79T115 117V573Q115 601 108 610T68
620H47ZM234 608V378H312Q380 378 418 404T456 494Q456 608 324 608H234Z" />
<glyph unicode="Q" glyph-name="Q" horiz-adv-x="771" d="M695 -74V-148Q647 -151 628 -151Q523 -151 429 -113T276 -3Q245 7 225 15T170 51T108 118Q48 206 48 341Q48 507 140 608T390 710Q548 710 635 609T723 354Q723 170 613 67Q586 42 557 26T509 3T458 -10Q529
-74 695 -74ZM388 621Q287 621 231 548T175 342Q175 327 175 314T180 271T191 217T215 164T252 115T309 82T387 68Q491 68 542 148T594 355Q594 428 577 481T529 564T463 607T388 621Z" />
<glyph unicode="R" glyph-name="R" horiz-adv-x="656" d="M44 620V690H337Q414 690 457 673Q568 629 568 499Q568 367 453 321L558 129Q572 103 588 90T617 73T647 70H669V0H491L337 298H231V112Q231 87 239 79T277 70H299V0H44V70H66Q98 70 105 79T112 119V573Q112
601 105 610T66 620H44ZM231 608V378H311Q453 378 453 494Q453 608 319 608H231Z" />
<glyph unicode="S" glyph-name="S" horiz-adv-x="552" d="M485 667V503H392V533Q392 576 382 594T345 623T286 634Q253 634 230 624T196 598T181 569T177 542Q177 499 209 472T312 409Q352 388 369 379T416 351T458 319T486 285T506 240T512 186Q512 130 486 85T417
14Q359 -19 259 -19Q146 -19 48 21V207H147V170Q147 129 159 109Q188 59 265 59Q318 59 354 85T390 165Q390 215 361 241T253 308Q222 324 207 332T165 358T122 391T90 428T66 474T58 527Q58 559 70 590T109 648T180 693T285 710Q393 710 485 667Z" />
<glyph unicode="T" glyph-name="T" horiz-adv-x="677" d="M28 690H649V504H559V564Q559 578 559 584T554 596T540 604T514 606H399V120Q399 97 401 89T413 75T449 70H472V0H205V70H234Q265 70 271 79T278 116V606H165Q132 606 125 599T118 557V504H28V690Z" />
<glyph unicode="U" glyph-name="U" horiz-adv-x="740" d="M32 690H290V620H265Q235 620 229 610T222 566V250Q222 167 255 120T379 72Q424 72 455 86T502 117T525 163T535 205T536 242V566Q536 600 530 610T492 620H469V690H707V620H683Q654 620 648 611T641 572V247Q641
-19 377 -19Q100 -19 100 242V572Q100 592 99 600T87 614T54 620H32V690Z" />
<glyph unicode="V" glyph-name="V" horiz-adv-x="698" d="M11 690H273V620H247Q209 620 209 598Q209 592 217 563L359 140H361L503 555Q512 579 512 593Q512 620 472 620H449V690H687V620H669Q651 620 640 612T623 594T610 563L407 -7H290L92 555Q77 598 67 609T30
620H11V690Z" />
<glyph unicode="W" glyph-name="W" horiz-adv-x="979" d="M11 690H269V620H238Q204 620 204 596Q204 590 209 567L310 160H312L444 690H558L686 164H688L789 554Q796 580 796 595Q796 620 750 620H731V690H968V620Q932 621 916 609T886 550L731 -4H616L489 501H487L358
-4H241L95 544Q82 593 70 606T29 620H11V690Z" />
<glyph unicode="X" glyph-name="X" horiz-adv-x="688" d="M39 690H299V620H286Q257 620 257 602Q257 592 275 565L354 444L434 558Q455 586 455 602Q455 614 447 617T413 620V690H652V620Q617 620 597 609T544 552L408 364L562 133Q582 103 601 89T631 72T664
70V0H399V70H417Q444 70 444 86Q444 99 423 130L336 263L236 122Q218 96 218 88Q218 76 228 73T264 70V0H24V70H39Q68 70 86 83T132 135L281 344L141 555Q113 597 94 609T39 620V690Z" />
<glyph unicode="Y" glyph-name="Y" horiz-adv-x="677" d="M9 690H272V620H249Q220 620 220 602Q220 591 228 580Q231 576 232 573L234 570L351 376L469 561Q488 590 488 602Q488 620 452 620H428V690H668V620Q649 620 641 619T620 609T597 583L397 275V116Q397
87 405 79T448 70H469V0H205V70H230Q263 70 270 79T277 116V272L91 570Q77 593 63 605T42 618T23 620H9V690Z" />
<glyph unicode="Z" glyph-name="Z" horiz-adv-x="635" d="M60 690H578V603L189 86H451Q487 86 495 95T504 138V192H593V0H45V86L433 603H207Q170 603 159 596T148 557V503H60V690Z" />
<glyph unicode="[" glyph-name="bracketleft" horiz-adv-x="323" d="M68 690H288V614H171V-132H288V-209H68V690Z" />
<glyph unicode="\" glyph-name="backslash" horiz-adv-x="563" d="M55 690H152L508 -24H412L55 690Z" />
<glyph unicode="]" glyph-name="bracketright" horiz-adv-x="323" d="M152 613H35V690H255V-209H35V-133H152V613Z" />
<glyph unicode="^" glyph-name="asciicircum" horiz-adv-x="521" d="M153 319H39L217 710H306L482 319H369L260 586L153 319Z" />
<glyph unicode="_" glyph-name="underscore" horiz-adv-x="500" d="M-6 -125V-75H506V-125H-6Z" />
<glyph unicode="`" glyph-name="grave" horiz-adv-x="333" d="M220 552H141L32 681H158L220 552Z" />
<glyph unicode="a" glyph-name="a" horiz-adv-x="531" d="M82 327V442Q168 498 268 498Q372 498 420 442Q436 423 442 398T449 321V134Q449 103 454 88T478 72Q490 72 516 84V16Q456 -12 417 -12Q347 -12 340 54Q284 -12 194 -12Q111 -12 76 29T41 124Q41 166
56 196T105 247T176 282T272 310L337 327Q336 346 335 355T330 381T317 406T292 422T251 429Q222 429 204 421T179 397T171 373T169 350V327H82ZM337 194V252Q288 238 269 232T221 215T182 195T163 171T154 137Q154 110 173 89T229 67Q273 67 307 97Q337 124 337
194Z" />
<glyph unicode="b" glyph-name="b" horiz-adv-x="563" d="M-4 694L175 710V422H177Q230 498 322 498Q404 498 460 438T517 253Q517 181 497 128T445 45T376 2T300 -12Q220 -12 163 48L133 -12H62V584Q62 602 61 610T54 626T33 633Q30 633 14 632T-4 631V694ZM286
407Q267 407 250 401T213 377T181 324T169 235Q169 193 179 162T202 114T234 88T264 76T286 73Q331 73 363 113T395 242Q395 264 393 282T382 334T349 387T286 407Z" />
<glyph unicode="c" glyph-name="c" horiz-adv-x="500" d="M452 455V300H358V345Q358 421 285 421Q240 421 210 391T170 326T160 254Q160 173 195 127T297 80Q367 80 450 138V44Q368 -15 272 -15Q218 -15 177 3T111 47T72 108T52 172T47 229Q47 302 69 356T129
440T207 484T292 498Q382 498 452 455Z" />
<glyph unicode="d" glyph-name="d" horiz-adv-x="573" d="M314 694L495 710V124Q495 90 505 81T560 75V14L392 0Q385 28 383 64H381Q330 -12 235 -12Q147 -12 94 55T41 228Q41 347 98 422T249 498Q333 498 382 440V581Q382 617 378 624T348 632H314V694ZM162 245Q162
229 162 216T169 176T185 130T218 96T272 81Q289 81 305 87T342 109T375 161T388 249Q388 331 355 371T273 411Q231 411 205 382T170 318T162 245Z" />
<glyph unicode="e" glyph-name="e" horiz-adv-x="510" d="M476 231H160Q159 159 198 118T297 77Q331 77 364 88T413 109T455 137Q456 138 460 140T465 144V48Q378 -15 267 -15Q205 -15 159 8T88 70T52 149T40 233Q40 342 101 420T272 498Q398 498 450 395Q479
338 476 231ZM163 310H359Q355 425 268 425Q182 425 163 310Z" />
<glyph unicode="f" glyph-name="f" horiz-adv-x="313" d="M24 401V482H87V524Q87 611 132 658Q181 710 268 710Q324 710 390 681V573H314V590Q314 643 268 643Q246 643 232 632T213 599T206 562T204 522V482H302V401H204V120Q204 79 210 72T250 64H271V0H24V64H47Q76
64 81 73T87 120V401H24Z" />
<glyph unicode="g" glyph-name="g" horiz-adv-x="531" d="M518 482V406H438Q465 368 465 312Q465 215 390 168Q350 145 267 140Q181 135 181 104Q181 75 258 71Q264 71 301 70T344 68Q367 67 383 66T428 57T473 37T505 -1T519 -60Q519 -102 497 -137T438 -193Q374
-227 258 -227Q147 -227 83 -201T19 -109Q19 -69 49 -39T126 -1V1Q69 20 69 70Q69 104 91 123T156 161Q58 206 58 316Q58 397 110 447T263 498Q311 498 359 482H518ZM264 205Q304 205 328 235T353 321Q353 436 261 436Q231 436 212 422T185 384T175 345T172 315Q172
271 194 238T264 205ZM130 -92Q130 -155 270 -155Q290 -155 310 -153T355 -144T395 -122T410 -86Q410 -58 378 -45T270 -31Q130 -31 130 -92Z" />
<glyph unicode="h" glyph-name="h" horiz-adv-x="573" d="M12 692L193 710V418H195Q237 493 337 493Q370 493 395 485T437 466T465 437T482 404T490 367T493 333T494 303V113Q494 77 501 71T551 64V0H320V64H337Q366 64 371 73T377 122V289Q377 307 377 317T372
346T360 376T337 395T298 404Q193 404 193 257V117Q193 80 198 72T231 64H250V0H20V64H37Q67 64 73 72T80 117V578Q80 614 74 622T37 630H12V692Z" />
<glyph unicode="i" glyph-name="i" horiz-adv-x="281" d="M20 474L200 490V117Q200 80 205 72T240 64H255V0H26V64H50Q74 64 80 71T87 107V346Q87 389 82 399T49 410H20V474ZM133 706Q165 706 185 689T205 643Q205 614 185 596T132 578Q101 578 81 595T60 642T81
688T133 706Z" />
<glyph unicode="j" glyph-name="j" horiz-adv-x="281" d="M25 410V474L207 490V0Q207 -30 206 -50T196 -107T171 -167T120 -208T36 -227Q-24 -227 -75 -208V-93H-1Q-1 -108 0 -116T4 -137T16 -155T40 -161Q58 -161 68 -153T83 -124T89 -86T90 -33V351Q90 386 89
394T80 406Q68 412 25 410ZM140 706Q172 706 192 689T213 643T193 596T140 578T88 596T67 642Q67 671 88 688T140 706Z" />
<glyph unicode="k" glyph-name="k" horiz-adv-x="542" d="M12 693L194 710V280L313 375Q318 378 326 387T335 404Q335 420 291 418V482H528V418Q488 418 458 391Q454 389 449 384L313 276L462 112Q465 109 466 106Q508 58 550 64V0H297V64H313Q338 64 338 78Q338
87 330 96L322 103L194 245V96Q194 73 200 69T238 64V0H22V64H39Q68 64 73 72T79 112V584Q79 616 75 624T50 632Q34 632 12 629V693Z" />
<glyph unicode="l" glyph-name="l" horiz-adv-x="281" d="M19 630V693L201 710V119Q201 78 208 71T256 64V0H27V64H44Q74 64 80 72T86 119V577Q86 612 81 622T51 632Q37 632 19 630Z" />
<glyph unicode="m" glyph-name="m" horiz-adv-x="875" d="M22 468L190 482Q197 458 198 414H200Q252 493 346 493Q453 493 487 403Q539 493 644 493Q684 493 722 476T775 426Q797 380 797 316V108Q797 79 804 72T839 64H853V0H622V64H646Q667 64 673 71T680 108V293Q680
311 680 321T675 350T664 378T641 396T604 404Q574 404 552 391T520 361T504 321T497 286T496 261V101Q496 77 502 71T533 64H554V0H325V64H341Q370 64 376 72T383 110V295Q383 345 367 375T306 405Q276 405 254 392T222 362T206 322T200 286T199 260V110Q199 82
204 73T233 64H257V0H27V64H46Q73 64 79 73T86 110V363Q86 387 81 396T55 406H22V468Z" />
<glyph unicode="n" glyph-name="n" horiz-adv-x="583" d="M24 467L192 482Q200 451 200 412H202Q251 493 348 493Q372 493 394 489T447 463T492 404Q503 376 503 304V113Q503 77 510 71T560 64V0H329V64H346Q375 64 380 73T386 122V287Q386 306 386 317T381 346T369
375T345 394T306 403Q201 403 201 255V117Q201 80 206 72T239 64H259V0H28V64H45Q76 64 82 72T88 117V341Q88 383 83 394T55 405Q48 405 37 405T24 404V467Z" />
<glyph unicode="o" glyph-name="o" horiz-adv-x="563" d="M273 -15Q157 -15 99 55T41 234Q41 282 53 326T92 410T168 474T282 498Q396 498 459 433T522 252Q522 213 515 177T489 105T444 43T372 1T273 -15ZM282 418Q216 418 187 364T157 239Q157 215 162 189T179
133T217 83T282 64Q311 64 333 75T368 106T388 144T400 187T403 223T404 247Q404 259 404 269T400 302T389 342T368 378T334 407T282 418Z" />
<glyph unicode="p" glyph-name="p" horiz-adv-x="573" d="M14 469L181 482Q189 455 189 413H191Q240 498 336 498Q431 498 481 428T532 254Q532 140 477 63T318 -15Q285 -15 257 -5T218 15T190 40V-98Q190 -130 196 -137T232 -145H255V-209H18V-145H33Q65 -145
71 -137T77 -94V345Q77 390 73 399T49 409Q46 409 32 408T14 407V469ZM299 404Q242 404 212 354T182 233Q182 154 215 112T299 70Q337 70 362 91T396 147T407 200T410 238Q410 316 382 360T299 404Z" />
<glyph unicode="q" glyph-name="q" horiz-adv-x="563" d="M428 496H498V-97Q498 -126 504 -135T537 -145H554V-209H317V-145H337Q369 -145 377 -138T385 -101V57H382Q333 -15 241 -15Q183 -15 141 12T80 81T52 160T43 232Q43 297 64 355T137 456T258 498Q333 498
398 435L428 496ZM165 238Q165 156 196 116T275 75Q284 75 293 76T321 87T355 113T380 164T392 246Q392 330 358 369T275 408Q243 408 220 392T186 349T170 295T165 238Z" />
<glyph unicode="r" glyph-name="r" horiz-adv-x="385" d="M22 469L185 482Q193 445 194 398H196Q246 489 330 489Q359 489 389 475V347H310Q310 362 309 369T302 384T284 392Q256 392 226 348T195 206V99Q195 79 202 72T233 64H259V0H28V64H43Q70 64 78 72T86
108V364Q86 387 81 395T62 406T22 406V469Z" />
<glyph unicode="s" glyph-name="s" horiz-adv-x="448" d="M388 466V339H301V366Q301 378 300 386T292 407T270 427T228 434Q198 434 175 422T152 379Q152 341 210 316L268 292Q338 262 375 228T413 135Q413 95 394 63T342 12Q297 -15 216 -15Q123 -15 43 18V156H134V130Q134
117 135 108T143 85T167 62T212 54Q230 54 246 57T280 77T297 119Q297 147 279 161T195 206Q163 221 148 229T109 252T75 280T56 314T47 359Q47 415 91 456T230 498Q308 498 388 466Z" />
<glyph unicode="t" glyph-name="t" horiz-adv-x="344" d="M124 624H193V482H314V401H193V157Q193 142 194 133T199 109T214 87T242 79Q266 79 320 103V23Q260 -12 196 -12Q162 -12 138 -1T102 23T84 59T77 93T76 124V401H16V465Q49 476 71 496T103 543T117 585T124 624Z" />
<glyph unicode="u" glyph-name="u" horiz-adv-x="573" d="M10 478L195 490V188Q195 170 195 160T200 133T211 106T234 89T272 81Q304 81 326 94T359 130T374 175T379 221V369Q379 399 375 407T352 416T311 414V478L492 490V122Q492 92 497 85T528 77Q543 77 556
79V16L389 0Q379 38 379 71H377Q337 -12 225 -12Q77 -12 77 163V366Q77 400 73 408T50 416Q40 416 10 414V478Z" />
<glyph unicode="v" glyph-name="v" horiz-adv-x="552" d="M7 418V482H245V418Q225 418 217 418T203 413T197 400Q197 390 205 371L294 141L380 365Q388 385 388 398T378 414T342 418V482H545V418Q519 418 509 409T481 359L325 -9H235L78 362Q63 396 50 406T7 418Z" />
<glyph unicode="w" glyph-name="w" horiz-adv-x="792" d="M4 482H237V418H221Q189 418 189 397Q189 390 193 376L197 364L265 147H267L365 482H460L561 147H563L625 361L628 369Q634 387 634 396Q634 418 601 418H588V482H788V418Q760 418 750 409T726 364L593
-4H501L400 308H398L300 -4H208L78 348L77 352Q76 355 75 357Q73 363 72 364Q58 400 44 409T4 418V482Z" />
<glyph unicode="x" glyph-name="x" horiz-adv-x="552" d="M28 482H258V418Q227 418 227 405Q227 395 238 382L288 307L343 376Q344 376 346 379L348 381Q362 401 362 406Q362 418 332 418V482H529V418Q515 418 507 417T486 407T458 381Q453 376 451 373L346 253L448
118Q475 82 491 73T535 64V0H306V64Q335 64 335 77Q335 84 322 102L266 181L202 100Q188 86 188 76Q188 64 215 64V0H17V64Q44 65 58 73T96 109L209 239L114 364Q88 398 72 407T28 418V482Z" />
<glyph unicode="y" glyph-name="y" horiz-adv-x="552" d="M5 482H243V418H227Q194 418 194 400Q194 389 202 373Q202 372 204 368T206 363L292 142L373 353Q375 359 377 363Q385 384 385 398Q385 407 378 412T363 417T339 418V482H543V418Q516 418 506 410T481
367L290 -90Q272 -135 251 -164T206 -205T166 -220T128 -224Q78 -224 27 -202V-86H104V-102Q104 -144 136 -144Q185 -144 227 0L78 353Q60 397 48 407T5 418V482Z" />
<glyph unicode="z" glyph-name="z" horiz-adv-x="490" d="M41 334V482H450V404L169 78H325Q341 78 349 79T364 87T371 108V155H460V0H30V81L311 404H167Q141 404 134 398T126 368V334H41Z" />
<glyph unicode="{" glyph-name="braceleft" horiz-adv-x="365" d="M339 690V598Q283 598 269 590Q237 572 237 454Q237 363 219 317T142 241Q203 212 221 157T239 -20Q239 -84 256 -100T339 -117V-209Q290 -209 269 -208T222 -197T178 -169Q151 -142 144 -104T136
9Q136 50 135 72T129 121T112 160T81 182T32 194V287Q99 291 117 331T136 467Q136 545 144 584T180 651Q199 670 224 678T270 688T339 690Z" />
<glyph unicode="|" glyph-name="bar" horiz-adv-x="563" d="M236 690H327V-141H236V690Z" />
<glyph unicode="}" glyph-name="braceright" horiz-adv-x="365" d="M333 287V194Q266 190 248 150T229 14Q229 -64 221 -103T185 -170Q166 -189 141 -197T95 -207T26 -209V-117Q82 -117 96 -109Q128 -91 128 27Q128 118 146 164T223 240Q162 269 144 324T126 501Q126
565 109 581T26 598V690Q75 690 96 689T143 678T187 650Q214 623 221 585T229 472Q229 431 230 409T236 360T253 321T284 299T333 287Z" />
<glyph unicode="~" glyph-name="asciitilde" horiz-adv-x="656" d="M60 276V371Q136 436 211 436Q240 436 268 427T355 389Q418 358 455 358Q514 358 597 428V333Q520 267 451 267Q421 267 392 276T300 316Q240 346 206 346Q136 346 60 276Z" />
</font>
</defs>
</svg>
