<?xml version="1.0" encoding="utf-8"?>
<!-- Generator: Adobe Illustrator 16.0.0, SVG Export Plug-In . SVG Version: 6.00 Build 0)  -->
<!DOCTYPE svg PUBLIC "-//W3C//DTD SVG 1.1//EN" "http://www.w3.org/Graphics/SVG/1.1/DTD/svg11.dtd">
<svg version="1.1" id="Layer_1" xmlns="http://www.w3.org/2000/svg" xmlns:xlink="http://www.w3.org/1999/xlink" x="0px" y="0px"
	 width="100px" height="100px" viewBox="375.004 -203.004 100 100" enable-background="new 375.004 -203.004 100 100"
	 xml:space="preserve">
<g>
	<circle fill="#093B6B" stroke="#FFFFFF" stroke-width="2" stroke-miterlimit="10" cx="425.004" cy="-153.004" r="47.896"/>
	<g>
		<path fill="#FFFFFF" stroke="#093B6B" stroke-width="2" stroke-miterlimit="10" d="M413.295-181.416l4.943,0.259l16.667,16.525
			l17.119-14.755l4.771,0.25v34.478l-14.182-0.743v-11.183l-8.809,9.21l-8.571-9.861v10.923l-11.938-0.626V-181.416L413.295-181.416
			z"/>
		<path fill="#FFFFFF" stroke="#093B6B" stroke-width="2" stroke-miterlimit="10" d="M403.779-159.492l4.943,0.258l16.667,16.525
			l17.12-14.755l4.771,0.251v34.477l-14.184-0.744v-11.182l-8.81,9.21l-8.568-9.862v10.924l-11.939-0.626V-159.492L403.779-159.492z
			"/>
		<path fill="#FFFFFF" stroke="#093B6B" stroke-width="2" stroke-miterlimit="10" d="M403.158-139.8
			c-5.108-0.268-9.542-2.155-13.297-5.662c-1.196-1.113-2.232-2.369-3.109-3.769c-1.871-2.961-2.808-6.217-2.808-9.764
			c0-3.549,0.864-6.645,2.589-9.287c1.728-2.645,4.046-4.653,6.953-6.026c2.908-1.373,5.918-1.979,9.035-1.815
			c3.115,0.163,5.861,0.725,8.235,1.684c2.375,0.959,4.443,2.266,6.206,3.92s3.149,3.638,4.155,5.949
			c1.009,2.313,1.513,4.894,1.513,7.743c0,3.541-0.9,6.642-2.698,9.304c-1.8,2.662-4.196,4.659-7.188,5.992
			C409.749-140.2,406.556-139.622,403.158-139.8z M409.053-161.706c0-2.433-1.165-3.71-3.498-3.832
			c-1.007-0.053-2.13,0.522-3.368,1.723c-1.855,1.818-3.152,4.031-3.884,6.642c-0.232,0.821-0.347,1.586-0.347,2.292
			c0,2.389,1.209,3.646,3.627,3.773c0.965,0.064,2.064-0.519,3.304-1.749c1.798-1.806,3.072-4.042,3.821-6.708
			C408.937-160.387,409.053-161.102,409.053-161.706z"/>
	</g>
</g>
</svg>
