<?xml version="1.0" encoding="utf-8"?>
<!-- Generator: Adobe Illustrator 16.0.0, SVG Export Plug-In . SVG Version: 6.00 Build 0)  -->
<!DOCTYPE svg PUBLIC "-//W3C//DTD SVG 1.1//EN" "http://www.w3.org/Graphics/SVG/1.1/DTD/svg11.dtd">
<svg version="1.1" id="Layer_1" xmlns="http://www.w3.org/2000/svg" xmlns:xlink="http://www.w3.org/1999/xlink" x="0px" y="0px"
	 width="404px" height="174.667px" viewBox="0 0 404 174.667" enable-background="new 0 0 404 174.667" xml:space="preserve">
<g>
	<path fill="#093B6B" stroke="#FFFFFF" stroke-width="2" stroke-miterlimit="10" d="M42.914,79.208
		c-10.397-0.544-19.419-4.386-27.063-11.522c-2.432-2.265-4.54-4.822-6.325-7.669C5.717,53.99,3.812,47.366,3.812,40.146
		s1.757-13.52,5.271-18.9c3.516-5.38,8.231-9.468,14.147-12.263c5.917-2.794,12.045-4.026,18.387-3.693
		c6.341,0.332,11.927,1.474,16.76,3.426c4.833,1.952,9.042,4.611,12.63,7.977c3.588,3.366,6.408,7.402,8.457,12.107
		c2.051,4.707,3.077,9.958,3.077,15.758c0,7.205-1.831,13.516-5.493,18.933c-3.661,5.417-8.537,9.481-14.628,12.193
		C56.327,78.396,49.826,79.571,42.914,79.208z M54.907,34.63c0-4.95-2.372-7.549-7.116-7.798c-2.051-0.107-4.336,1.062-6.855,3.507
		c-3.777,3.698-6.414,8.203-7.907,13.513c-0.469,1.674-0.702,3.229-0.702,4.664c0,4.863,2.459,7.422,7.381,7.68
		c1.962,0.132,4.201-1.054,6.722-3.558c3.66-3.674,6.252-8.225,7.776-13.651C54.672,37.313,54.907,35.86,54.907,34.63z"/>
	<path fill="#093B6B" stroke="#FFFFFF" stroke-width="2" stroke-miterlimit="10" d="M117.293,32.627
		c3.954-5.064,9.943-7.387,17.969-6.966c2.283,0.12,4.715,0.774,7.292,1.964c2.578,1.189,4.817,2.83,6.722,4.921
		c4.101,4.462,6.151,10.192,6.151,17.193v33.652l-26.273-1.376v-23.68c0-4.714-0.761-8.628-2.284-11.74
		c-1.522-3.111-3.31-4.72-5.359-4.828c-2.812-0.147-4.217,1.698-4.217,5.535v34.091l-26.098-1.368V6.087l26.098,1.368
		L117.293,32.627L117.293,32.627z"/>
</g>
<g>
	<path fill="#093B6B" stroke="#FFFFFF" stroke-width="2" stroke-miterlimit="10" d="M188.244,14.951l10.061,0.526l33.917,33.63
		l34.838-30.027l9.709,0.509v70.163l-28.862-1.514V65.481L229.98,84.224l-17.44-20.069v22.229l-24.296-1.274V14.951L188.244,14.951z
		"/>
	<path fill="#093B6B" stroke="#FFFFFF" stroke-width="2" stroke-miterlimit="10" d="M291.003,89.311
		c3.104,1.013,7.001,1.642,11.687,1.888c2.957,0.154,4.937-1,5.933-3.468c0.292-0.747,0.438-1.529,0.438-2.351
		c0-0.819-0.146-1.691-0.438-2.614L286.04,35.628L312.224,37l9.446,21.626l8.831-20.669l23.021,1.207l-20.519,49.931
		c-2.723,6.506-5.726,11.255-9.006,14.246c-4.013,3.656-8.962,5.33-14.849,5.021c-8.056-0.422-14.104-1.573-18.146-3.454V89.311z"/>
</g>
<g>
	<path fill="#093B6B" stroke="#FFFFFF" stroke-width="3" stroke-miterlimit="10" d="M65.212,74.031l11.55,0.604l38.934,38.604
		l39.989-34.468l11.146,0.584v80.537l-33.133-1.735v-26.123l-20.577,21.514l-20.02-23.037v25.52l-27.89-1.463L65.212,74.031
		L65.212,74.031z"/>
	<path fill="#093B6B" stroke="#FFFFFF" stroke-width="3" stroke-miterlimit="10" d="M186.096,155.333
		c-2.689-2.647-4.834-5.92-6.43-9.818c-1.599-3.9-2.396-8.053-2.396-12.457c0-4.402,0.438-8.196,1.312-11.378
		c1.749-6.33,4.808-11.565,9.179-15.708c2.084-2.041,4.403-3.736,6.959-5.082c5.244-2.785,10.783-4.023,16.619-3.719
		c5.83,0.307,10.949,2.509,15.356,6.604c1.408,1.318,2.636,2.812,3.681,4.48l7.211-7.338l16.542,0.867v62.684l-16.542-0.865
		l-7.211-10.816c-5.517,7.848-13.87,11.494-25.065,10.938c-3.093-0.128-6.396-0.897-9.909-2.31
		C191.889,160.005,188.784,157.978,186.096,155.333z M226.943,119.373c-1.209-0.77-2.655-1.199-4.336-1.285
		c-1.683-0.09-3.455,0.414-5.32,1.51c-1.866,1.096-3.539,2.512-5.018,4.252c-3.295,3.896-4.944,7.943-4.944,12.146
		c0,2.959,0.909,5.09,2.725,6.396c1.683,1.196,4.245,1.173,7.69-0.077c3.447-1.249,6.515-2.943,9.203-5.089V119.373z"/>
	<path fill="#093B6B" stroke="#FFFFFF" stroke-width="3" stroke-miterlimit="10" d="M313.586,163.046
		c-6.39,4.004-13.156,5.818-20.301,5.445c-7.145-0.375-12.952-2.707-17.424-6.992c-4.471-4.285-6.705-9.858-6.705-16.717V118.56
		l-5.75-0.301v-15.988l5.75,0.303V85.628l30.156-1.497v20.021l14.272,0.748v15.986l-14.272-0.748v15.834
		c0,4.74,1.065,8.236,3.203,10.482c2.135,2.246,5.824,3.508,11.069,3.781L313.586,163.046L313.586,163.046z"/>
	<path fill="#093B6B" stroke="#FFFFFF" stroke-width="3" stroke-miterlimit="10" d="M352.821,113.666
		c4.537-5.814,11.411-8.48,20.625-7.998c2.621,0.138,5.414,0.89,8.371,2.254c2.959,1.367,5.53,3.25,7.716,5.649
		c4.707,5.123,7.061,11.701,7.061,19.735v38.63l-30.155-1.58v-27.185c0-5.412-0.874-9.903-2.623-13.477
		c-1.749-3.57-3.801-5.418-6.153-5.54c-3.227-0.17-4.84,1.948-4.84,6.351v39.135l-29.957-1.569V83.197l29.957,1.57L352.821,113.666
		L352.821,113.666z"/>
</g>
</svg>
