<?xml version="1.0" encoding="utf-8"?>
<!-- Generator: Adobe Illustrator 16.0.0, SVG Export Plug-In . SVG Version: 6.00 Build 0)  -->
<!DOCTYPE svg PUBLIC "-//W3C//DTD SVG 1.1//EN" "http://www.w3.org/Graphics/SVG/1.1/DTD/svg11.dtd">
<svg version="1.1" id="Layer_1" xmlns="http://www.w3.org/2000/svg" xmlns:xlink="http://www.w3.org/1999/xlink" x="0px" y="0px"
	 width="404px" height="174.667px" viewBox="0 0 404 174.667" enable-background="new 0 0 404 174.667" xml:space="preserve">
<rect x="-1593.62" y="-191.05" fill="none" width="518.681" height="93.407"/>
<text transform="matrix(1 0 0 1 -1593.6196 -136.8125)" font-family="'RammettoOne-Regular'" font-size="66">Oh My Math</text>
<g>
	<path d="M-1556.247,25.951c-9.175-0.48-17.136-3.87-23.881-10.168c-2.146-1.999-4.007-4.255-5.583-6.768
		c-3.36-5.318-5.04-11.164-5.04-17.535s1.551-11.931,4.652-16.679s7.263-8.355,12.484-10.821c5.22-2.466,10.628-3.553,16.225-3.259
		c5.595,0.293,10.525,1.301,14.79,3.023s7.98,4.069,11.146,7.039c3.166,2.971,5.654,6.532,7.463,10.684
		c1.809,4.153,2.714,8.788,2.714,13.906c0,6.357-1.615,11.927-4.846,16.707s-7.534,8.366-12.91,10.76
		C-1544.41,25.234-1550.147,26.271-1556.247,25.951z M-1545.663-13.387c0-4.368-2.094-6.662-6.281-6.882
		c-1.809-0.095-3.825,0.938-6.048,3.095c-3.334,3.264-5.66,7.238-6.979,11.925c-0.414,1.478-0.62,2.85-0.62,4.115
		c0,4.291,2.171,6.55,6.513,6.777c1.731,0.116,3.708-0.93,5.932-3.14c3.23-3.242,5.518-7.258,6.862-12.047
		C-1545.871-11.02-1545.663-12.302-1545.663-13.387z"/>
	<path d="M-1490.611-15.155c3.489-4.469,8.774-6.519,15.856-6.147c2.016,0.105,4.161,0.684,6.436,1.733
		c2.274,1.05,4.251,2.497,5.932,4.343c3.618,3.938,5.428,8.994,5.428,15.172v29.696l-23.184-1.215V7.531
		c0-4.16-0.672-7.614-2.016-10.36c-1.344-2.745-2.921-4.165-4.73-4.26c-2.481-0.13-3.722,1.498-3.722,4.884v30.084l-23.029-1.207
		v-65.247l23.029,1.207V-15.155z"/>
</g>
<g>
	<path d="M-1428-30.753l8.878,0.465l29.93,29.677l30.744-26.497l8.568,0.449v61.914l-25.471-1.335V13.837l-15.818,16.539
		l-15.391-17.71v19.617L-1428,31.16V-30.753z"/>
	<path d="M-1337.32,34.866c2.739,0.894,6.177,1.448,10.312,1.665c2.609,0.137,4.355-0.883,5.234-3.06
		c0.258-0.659,0.387-1.35,0.387-2.074c0-0.723-0.129-1.492-0.387-2.307l-19.927-41.597l23.105,1.211l8.336,19.084l7.793-18.239
		l20.314,1.064l-18.105,44.062c-2.402,5.741-5.053,9.932-7.947,12.571c-3.541,3.227-7.908,4.703-13.104,4.431
		c-7.108-0.372-12.444-1.389-16.011-3.049V34.866z"/>
</g>
<g>
	<path stroke="#FFFFFF" stroke-width="3" stroke-miterlimit="10" d="M-1520.505,22.001l10.192,0.534l34.356,34.066l35.289-30.416
		l9.835,0.516v71.07l-29.238-1.531V73.188l-18.158,18.986l-17.667-20.33v22.52l-24.61-1.291V22.001z"/>
	<path stroke="#FFFFFF" stroke-width="3" stroke-miterlimit="10" d="M-1413.832,93.746c-2.374-2.336-4.266-5.223-5.674-8.664
		c-1.41-3.441-2.114-7.105-2.114-10.992c0-3.885,0.386-7.232,1.157-10.041c1.542-5.585,4.242-10.207,8.1-13.862
		c1.838-1.801,3.885-3.297,6.141-4.484c4.627-2.457,9.515-3.551,14.665-3.281c5.146,0.271,9.663,2.214,13.551,5.828
		c1.244,1.163,2.327,2.481,3.249,3.954l6.363-6.476l14.598,0.765v55.316l-14.598-0.764l-6.363-9.545
		c-4.867,6.924-12.239,10.143-22.12,9.652c-2.729-0.113-5.643-0.793-8.744-2.037S-1411.459,96.08-1413.832,93.746z
		 M-1377.785,62.014c-1.067-0.679-2.345-1.058-3.827-1.135c-1.484-0.078-3.049,0.366-4.694,1.333
		c-1.648,0.967-3.123,2.217-4.428,3.752c-2.908,3.438-4.363,7.01-4.363,10.719c0,2.611,0.803,4.492,2.403,5.645
		c1.484,1.057,3.747,1.035,6.787-0.068c3.042-1.102,5.749-2.598,8.123-4.49V62.014z"/>
	<path stroke="#FFFFFF" stroke-width="3" stroke-miterlimit="10" d="M-1301.328,100.553c-5.639,3.533-11.609,5.135-17.914,4.805
		s-11.43-2.389-15.375-6.17s-5.918-8.699-5.918-14.752v-23.14l-5.074-0.266V46.921l5.074,0.267V32.235l26.611-1.32v17.668
		l12.596,0.66V63.35l-12.596-0.66v13.973c0,4.184,0.941,7.268,2.828,9.25c1.883,1.982,5.139,3.096,9.768,3.338V100.553z"/>
	<path stroke="#FFFFFF" stroke-width="3" stroke-miterlimit="10" d="M-1266.705,56.976c4.004-5.131,10.07-7.483,18.201-7.057
		c2.312,0.121,4.777,0.784,7.387,1.988c2.611,1.206,4.881,2.867,6.809,4.985c4.154,4.521,6.23,10.326,6.23,17.416v34.09
		l-26.611-1.395V83.016c0-4.775-0.771-8.74-2.314-11.893c-1.543-3.15-3.354-4.781-5.43-4.889c-2.848-0.15-4.271,1.719-4.271,5.604
		v34.535l-26.436-1.385V30.09l26.436,1.386V56.976z"/>
</g>
<g>
	<path stroke="#FFFFFF" stroke-width="2" stroke-miterlimit="10" d="M42.914,79.208c-10.397-0.544-19.419-4.386-27.063-11.522
		c-2.432-2.265-4.54-4.822-6.325-7.669C5.717,53.99,3.812,47.366,3.812,40.146s1.757-13.52,5.271-18.9
		c3.516-5.38,8.231-9.468,14.147-12.263c5.917-2.794,12.045-4.026,18.387-3.693c6.341,0.332,11.927,1.474,16.76,3.426
		s9.042,4.611,12.63,7.977c3.588,3.366,6.408,7.402,8.457,12.107c2.051,4.707,3.077,9.958,3.077,15.758
		c0,7.205-1.831,13.516-5.493,18.933c-3.661,5.417-8.537,9.481-14.628,12.193C56.327,78.396,49.826,79.571,42.914,79.208z
		 M54.907,34.63c0-4.95-2.372-7.549-7.116-7.798c-2.051-0.107-4.336,1.062-6.855,3.507c-3.777,3.698-6.414,8.203-7.907,13.513
		c-0.469,1.674-0.702,3.229-0.702,4.664c0,4.863,2.459,7.422,7.381,7.68c1.962,0.132,4.201-1.054,6.722-3.558
		c3.66-3.674,6.252-8.225,7.776-13.651C54.672,37.313,54.907,35.86,54.907,34.63z"/>
	<path stroke="#FFFFFF" stroke-width="2" stroke-miterlimit="10" d="M117.293,32.627c3.954-5.064,9.943-7.387,17.969-6.966
		c2.283,0.12,4.715,0.774,7.292,1.964c2.578,1.189,4.817,2.83,6.722,4.921c4.101,4.462,6.151,10.192,6.151,17.193v33.652
		l-26.273-1.376v-23.68c0-4.714-0.761-8.628-2.284-11.74c-1.522-3.111-3.31-4.72-5.359-4.828c-2.812-0.147-4.217,1.698-4.217,5.535
		v34.091l-26.098-1.368V6.087l26.098,1.368V32.627z"/>
</g>
<g>
	<path stroke="#FFFFFF" stroke-width="2" stroke-miterlimit="10" d="M188.244,14.951l10.061,0.526l33.917,33.63l34.838-30.027
		l9.71,0.509v70.162l-28.863-1.513V65.481L229.98,84.224l-17.44-20.069v22.23l-24.296-1.274V14.951z"/>
	<path stroke="#FFFFFF" stroke-width="2" stroke-miterlimit="10" d="M291.003,89.311c3.105,1.013,7.001,1.641,11.687,1.887
		c2.957,0.155,4.936-1,5.932-3.467c0.292-0.747,0.438-1.529,0.438-2.351c0-0.819-0.146-1.691-0.438-2.614l-22.582-47.138
		l26.184,1.372l9.446,21.626l8.831-20.669l23.021,1.207l-20.518,49.931c-2.723,6.506-5.726,11.255-9.006,14.246
		c-4.013,3.656-8.962,5.33-14.849,5.021c-8.055-0.422-14.103-1.574-18.146-3.455V89.311z"/>
</g>
<g>
	<path stroke="#FFFFFF" stroke-width="3" stroke-miterlimit="10" d="M65.212,74.031l11.55,0.605l38.934,38.604l39.989-34.468
		l11.146,0.584v80.537l-33.133-1.735v-26.124l-20.577,21.515l-20.02-23.038v25.52l-27.89-1.463V74.031z"/>
	<path stroke="#FFFFFF" stroke-width="3" stroke-miterlimit="10" d="M186.096,155.333c-2.689-2.647-4.834-5.919-6.43-9.818
		c-1.599-3.9-2.396-8.052-2.396-12.457c0-4.402,0.438-8.196,1.312-11.378c1.749-6.33,4.808-11.566,9.179-15.708
		c2.084-2.041,4.403-3.736,6.959-5.082c5.244-2.785,10.783-4.024,16.619-3.719c5.83,0.307,10.949,2.509,15.356,6.604
		c1.409,1.318,2.636,2.812,3.681,4.481l7.211-7.338l16.542,0.866v62.684l-16.542-0.865l-7.211-10.816
		c-5.516,7.847-13.87,11.494-25.065,10.938c-3.093-0.128-6.396-0.898-9.909-2.309S188.784,157.978,186.096,155.333z
		 M226.944,119.373c-1.209-0.77-2.656-1.199-4.336-1.286c-1.683-0.089-3.455,0.415-5.321,1.51c-1.866,1.096-3.539,2.512-5.018,4.252
		c-3.295,3.896-4.944,7.943-4.944,12.146c0,2.959,0.91,5.091,2.725,6.396c1.683,1.197,4.245,1.173,7.69-0.077
		c3.447-1.249,6.515-2.944,9.204-5.089V119.373z"/>
	<path stroke="#FFFFFF" stroke-width="3" stroke-miterlimit="10" d="M313.586,163.046c-6.39,4.004-13.156,5.819-20.301,5.445
		s-12.952-2.707-17.423-6.992s-6.706-9.858-6.706-16.717V118.56l-5.75-0.301v-15.988l5.75,0.302V85.628l30.156-1.497v20.021
		l14.273,0.748v15.986l-14.273-0.748v15.834c0,4.741,1.066,8.236,3.204,10.482c2.134,2.247,5.824,3.508,11.069,3.782V163.046z"/>
	<path stroke="#FFFFFF" stroke-width="3" stroke-miterlimit="10" d="M352.821,113.665c4.537-5.814,11.411-8.48,20.625-7.997
		c2.621,0.137,5.414,0.889,8.371,2.253c2.959,1.367,5.531,3.25,7.716,5.65c4.707,5.123,7.061,11.701,7.061,19.735v38.63
		l-30.156-1.58v-27.184c0-5.412-0.874-9.904-2.623-13.477c-1.749-3.57-3.8-5.418-6.153-5.54c-3.227-0.17-4.84,1.948-4.84,6.35
		v39.135l-29.957-1.569V83.197l29.957,1.57V113.665z"/>
</g>
<rect x="-1586.905" y="-314.127" fill="none" width="518.681" height="93.407"/>
<text transform="matrix(1 0 0 1 -1586.9048 -255.3271)" font-family="'Null-Free'" font-size="84">Oh My Math</text>
</svg>
